<!-- Generated by IcoMoon.io -->
<svg version="1.1" xmlns="http://www.w3.org/2000/svg" width="32" height="32" viewBox="0 0 32 32">
<title>widget-display</title>
<path d="M6.144 7.722c0.568 0 1.090 0.123 1.566 0.37 0.486 0.238 0.903 0.582 1.251 1.031 0.349 0.44 0.619 0.971 0.811 1.594 0.202 0.623 0.302 1.315 0.302 2.075 0 0.522-0.1 1.012-0.302 1.47-0.192 0.449-0.462 0.842-0.811 1.181-0.338 0.33-0.742 0.595-1.209 0.797-0.458 0.192-0.948 0.289-1.47 0.289-0.596 0-1.142-0.1-1.636-0.302-0.486-0.202-0.902-0.49-1.25-0.866-0.348-0.385-0.618-0.853-0.81-1.403-0.183-0.55-0.275-1.172-0.275-1.869 0-0.632 0.097-1.214 0.289-1.745 0.202-0.54 0.472-1.003 0.811-1.388 0.348-0.394 0.754-0.696 1.222-0.906 0.467-0.22 0.972-0.33 1.513-0.33zM6.336 5.811c-0.916 0-1.763 0.161-2.542 0.481-0.769 0.321-1.438 0.775-2.006 1.361-0.559 0.577-1 1.269-1.321 2.075-0.311 0.806-0.467 1.695-0.467 2.666 0 0.907 0.142 1.736 0.426 2.488s0.682 1.402 1.196 1.952c0.513 0.54 1.122 0.962 1.828 1.264 0.706 0.293 1.479 0.439 2.322 0.439 2.089 0 3.556-0.847 4.398-2.542h0.056c0 1.328-0.13 2.505-0.386 3.531s-0.627 1.893-1.113 2.598c-0.486 0.696-1.081 1.227-1.786 1.594-0.697 0.366-1.49 0.55-2.378 0.55-1.237 0-2.401-0.308-3.49-0.922v2.158c0.99 0.458 2.135 0.687 3.436 0.687 1.264 0 2.391-0.252 3.381-0.756 0.99-0.513 1.827-1.255 2.514-2.227 0.687-0.98 1.21-2.17 1.567-3.572 0.357-1.411 0.536-3.019 0.536-4.823 0-1.438-0.138-2.717-0.413-3.834s-0.673-2.057-1.195-2.817c-0.522-0.77-1.168-1.351-1.938-1.745-0.76-0.403-1.635-0.605-2.625-0.605zM25.639 7.722c0.568 0 1.090 0.123 1.566 0.37 0.486 0.238 0.902 0.582 1.25 1.031 0.348 0.44 0.618 0.971 0.81 1.594 0.202 0.623 0.303 1.315 0.303 2.075 0 0.522-0.102 1.012-0.303 1.47-0.192 0.449-0.462 0.842-0.81 1.181-0.339 0.33-0.741 0.595-1.208 0.797-0.458 0.192-0.95 0.289-1.472 0.289-0.595 0-1.14-0.1-1.634-0.302-0.486-0.202-0.902-0.49-1.25-0.866-0.349-0.385-0.619-0.853-0.811-1.403-0.183-0.55-0.275-1.172-0.275-1.869 0-0.632 0.095-1.214 0.288-1.745 0.201-0.54 0.471-1.003 0.81-1.388 0.348-0.394 0.756-0.696 1.223-0.906 0.468-0.22 0.972-0.33 1.513-0.33zM25.831 5.811c-0.916 0-1.763 0.161-2.542 0.481-0.77 0.321-1.438 0.775-2.006 1.361-0.559 0.577-1 1.269-1.321 2.075-0.311 0.806-0.467 1.695-0.467 2.666 0 0.907 0.143 1.736 0.427 2.488s0.682 1.402 1.195 1.952c0.513 0.54 1.122 0.962 1.828 1.264 0.706 0.293 1.479 0.439 2.322 0.439 2.089 0 3.554-0.847 4.397-2.542h0.056c0 1.328-0.129 2.505-0.386 3.531s-0.627 1.893-1.113 2.598c-0.486 0.696-1.080 1.227-1.786 1.594-0.696 0.366-1.49 0.55-2.378 0.55-1.237 0-2.4-0.308-3.49-0.922v2.158c0.99 0.458 2.135 0.687 3.436 0.687 1.264 0 2.39-0.252 3.379-0.756 0.99-0.513 1.829-1.255 2.516-2.227 0.687-0.98 1.208-2.17 1.566-3.572 0.358-1.411 0.536-3.019 0.536-4.823 0-1.438-0.136-2.717-0.411-3.834s-0.673-2.057-1.195-2.817c-0.522-0.77-1.17-1.351-1.939-1.745-0.76-0.403-1.634-0.605-2.623-0.605zM15.988 23.058c-0.422 0-0.784 0.156-1.086 0.467-0.293 0.302-0.441 0.663-0.441 1.084s0.148 0.784 0.441 1.086c0.302 0.302 0.665 0.453 1.086 0.453 0.43 0 0.796-0.151 1.098-0.453s0.453-0.665 0.453-1.086c0-0.421-0.15-0.782-0.453-1.084-0.302-0.311-0.668-0.467-1.098-0.467z"></path>
</svg>
